<svg xmlns="http://www.w3.org/2000/svg" viewBox="0 0 512 512" width="512" height="512"><rect width="512" height="512" rx="110" fill="#14477D"/><g transform="translate(76,76) scale(0.703)"><circle cx="256" cy="256" r="230" fill="none" stroke="#FFFFFF" stroke-width="22"/><ellipse cx="256" cy="112" rx="58" ry="20" fill="none" stroke="#C99532" stroke-width="18"/><circle cx="256" cy="196" r="38" fill="#FFFFFF"/><g><ellipse cx="357.9" cy="239.3" rx="73.0" ry="20.0" fill="#FFFFFF" transform="rotate(-10 357.9 239.3)"/><ellipse cx="349.3" cy="289.0" rx="69.0" ry="19.0" fill="#FFFFFF" transform="rotate(16 349.3 289.0)"/><ellipse cx="319.9" cy="324.0" rx="56.0" ry="16.0" fill="#FFFFFF" transform="rotate(40 319.9 324.0)"/><ellipse cx="289.7" cy="334.8" rx="41.0" ry="13.0" fill="#FFFFFF" transform="rotate(58 289.7 334.8)"/></g><g transform="translate(512,0) scale(-1,1)"><ellipse cx="357.9" cy="239.3" rx="73.0" ry="20.0" fill="#FFFFFF" transform="rotate(-10 357.9 239.3)"/><ellipse cx="349.3" cy="289.0" rx="69.0" ry="19.0" fill="#FFFFFF" transform="rotate(16 349.3 289.0)"/><ellipse cx="319.9" cy="324.0" rx="56.0" ry="16.0" fill="#FFFFFF" transform="rotate(40 319.9 324.0)"/><ellipse cx="289.7" cy="334.8" rx="41.0" ry="13.0" fill="#FFFFFF" transform="rotate(58 289.7 334.8)"/></g></g></svg>